Coordinates
version=1
nRows=22
nColumns=24
inDegrees=yes

Units are S.I. units (second, meters, Newtons, ...)
Angles are in degrees.

endheader
time	pelvis_tilt	pelvis_list	pelvis_rotation	pelvis_tx	pelvis_ty	pelvis_tz	hip_flexion_r	hip_adduction_r	hip_rotation_r	knee_angle_r	ankle_angle_r	subtalar_angle_r	mtp_angle_r	hip_flexion_l	hip_adduction_l	hip_rotation_l	knee_angle_l	ankle_angle_l	subtalar_angle_l	mtp_angle_l	lumbar_extension	lumbar_bending	lumbar_rotation
      4.47000000	      1.09082785	      2.88919024	      4.73864663	     -0.19360637	      0.68563844	     -0.44936127	     19.53059663	      3.33499859	      6.05503801	     -0.16532004	      7.93781724	    -16.02265058	      0.00000000	    -20.54033752	      7.08750388	     11.10503070	    -16.57457578	     11.99382133	     -1.51537575	      0.00000000	    -18.92105411	     -2.06781545	    -13.07077258
      4.48000000	      1.23154922	      2.13464591	      4.43101557	     -0.17993522	      0.68569498	     -0.44890891	     19.71130894	      4.52133395	      6.19263486	     -2.48715867	      7.04660895	    -16.27980727	      0.00000000	    -19.42623895	      6.06760198	      7.71840989	    -20.26761553	     11.24445224	      2.36812557	      0.00000000	    -18.77461272	     -1.14329155	    -12.62970855
      4.49000000	      1.28208423	      1.31413401	      4.15927714	     -0.16647742	      0.68581649	     -0.44841341	     20.06327967	      5.76414356	      5.98760260	     -4.98737578	      6.19290107	    -16.18635708	      0.00000000	    -17.92360554	      4.84831854	      4.73647359	    -24.31595602	      9.80725013	      5.54551751	      0.00000000	    -18.56932115	     -0.16318808	    -12.22332414
      4.50000000	      0.85896267	      0.57637942	      3.79855030	     -0.15334951	      0.68551092	     -0.44777919	     21.05445152	      6.90240995	      5.53531086	     -7.72168652	      5.60597235	    -15.54643696	      0.00000000	    -15.61801915	      3.68507170	      2.19079646	    -28.69580149	      7.65515988	      7.83898568	      0.00000000	    -17.83613338	      0.62930791	    -11.76307139
      4.51000000	      1.09463606	     -0.40970371	      3.51994790	     -0.14027102	      0.68601275	     -0.44732966	     21.11666808	      8.25582340	      5.13517604	    -10.07045224	      5.04478750	    -15.06836105	      0.00000000	    -13.88923180	      2.10388836	      0.07379062	    -33.11257731	      5.05142827	      9.39260894	      0.00000000	    -17.93820869	      1.83312192	    -11.32423749
      4.52000000	      0.56901441	     -1.12341417	      3.23356640	     -0.12783669	      0.68571167	     -0.44682057	     22.08860775	      9.24721446	      4.58633888	    -12.53955300	      4.92804323	    -14.16123859	      0.00000000	    -10.99849936	      0.83537361	     -1.47374202	    -37.83042899	      1.98664909	     10.06017881	      0.00000000	    -17.22138122	      2.60650012	    -11.02159339
      4.53000000	      0.45413257	     -2.00340695	      3.04384084	     -0.11552565	      0.68589837	     -0.44636138	     22.31249682	     10.38656154	      4.31060575	    -14.44627795	      4.80657456	    -13.72815912	      0.00000000	     -8.43317601	     -0.69971646	     -2.60827255	    -42.47916596	     -1.12185168	     10.23076627	      0.00000000	    -17.02205946	      3.61042692	    -10.73971546
      4.54000000	      0.23804123	     -2.78072740	      2.97938353	     -0.10357549	      0.68603953	     -0.44601279	     22.42753484	     11.36322460	      4.13903330	    -15.93098476	      4.93276045	    -13.56827859	      0.00000000	     -5.57705911	     -2.08746966	     -3.22200511	    -47.06201132	     -4.31595408	      9.48443290	      0.00000000	    -16.73123889	      4.45594022	    -10.52659711
      4.55000000	      0.09239329	     -3.59647692	      2.90683867	     -0.09188283	      0.68632854	     -0.44562117	     22.22585054	     12.38097496	      4.09553975	    -16.96303714	      5.18865215	    -13.54355559	      0.00000000	     -2.71552164	     -3.45407542	     -3.48011355	    -51.45338861	     -7.08765366	      8.41918275	      0.00000000	    -16.55865305	      5.32512061	    -10.25304362
      4.56000000	     -0.06428821	     -4.40585053	      2.83911403	     -0.08037861	      0.68669432	     -0.44517105	     21.77640046	     13.39023827	      4.15014813	    -17.51999486	      5.59487798	    -13.66665743	      0.00000000	      0.21357026	     -4.73007750	     -3.43076162	    -55.60694346	     -9.22921830	      7.11067277	      0.00000000	    -16.36675525	      6.13930601	     -9.93552498
      4.57000000	     -0.34589365	     -5.20834129	      2.72800612	     -0.06891512	      0.68704848	     -0.44467844	     21.17997722	     14.38974159	      4.41010732	    -17.60901882	      6.14773186	    -13.81300335	      0.00000000	      3.27640450	     -5.87004071	     -3.10488560	    -59.46698610	    -10.51917024	      5.79216795	      0.00000000	    -15.95671318	      6.91927560	     -9.58845098
      4.58000000	     -0.29384335	     -5.93219376	      2.54224242	     -0.05770717	      0.68799426	     -0.44415330	     19.99856092	     15.33572530	      4.72963711	    -17.31321265	      6.72705525	    -13.98832629	      0.00000000	      5.90028507	     -6.80361473	     -2.66088581	    -62.89733224	    -10.91980383	      4.33454062	      0.00000000	    -16.04824626	      7.58056901	     -8.98829113
      4.59000000	     -0.51761088	     -6.55127478	      2.38922414	     -0.04635760	      0.68883624	     -0.44369605	     18.81854989	     16.13444022	      5.41640113	    -16.57164503	      7.27999411	    -14.34291505	      0.00000000	      8.76071644	     -7.45520044	     -1.93464362	    -65.93647144	    -10.43372206	      3.00618084	      0.00000000	    -15.66544473	      8.12169735	     -8.56732759
      4.60000000	     -0.43762562	     -7.01877821	      2.02542112	     -0.03514470	      0.69027852	     -0.44313100	     17.16823380	     16.80217547	      6.13959340	    -15.67332705	      7.91390206	    -14.32902252	      0.00000000	     11.08763171	     -7.86568994	     -1.35830565	    -68.43100215	     -9.19760419	      1.71633348	      0.00000000	    -15.73208784	      8.46545385	     -7.84017114
      4.61000000	     -0.50393414	     -7.32459863	      1.70209678	     -0.02389314	      0.69173889	     -0.44256732	     15.48715235	     17.26553326	      7.19751368	    -14.49629015	      8.28324806	    -14.71857870	      0.00000000	     13.48514984	     -7.99969003	     -0.64610985	    -70.47309707	     -7.52907755	      0.52807590	      0.00000000	    -15.56119788	      8.62066846	     -7.22272028
      4.62000000	     -0.46770989	     -7.41306238	      1.20989991	     -0.01270373	      0.69352139	     -0.44196239	     13.62460229	     17.48412156	      8.41220521	    -13.30040963	      8.63949659	    -14.87662275	      0.00000000	     15.53933879	     -7.86242322	     -0.13912403	    -71.92910186	     -5.52959529	     -0.73643609	      0.00000000	    -15.56793503	      8.53112148	     -6.54173482
      4.63000000	     -0.41092184	     -7.24155607	      0.68367613	     -0.00154394	      0.69545318	     -0.44132699	     11.67847780	     17.39003847	      9.82416275	    -12.04243949	      8.94300912	    -15.15830028	      0.00000000	     17.40882516	     -7.41507690	      0.28554883	    -72.84482904	     -3.61606437	     -2.07833325	      0.00000000	    -15.60808191	      8.12652374	     -5.89528906
      4.64000000	     -0.28490591	     -7.00340394	      0.15008221	      0.00945277	      0.69742843	     -0.44074883	      9.69589903	     17.17240334	     11.24215615	    -10.81807408	      9.07347844	    -15.53281680	      0.00000000	     19.09902017	     -6.89397343	      0.65915695	    -73.32019577	     -1.81441109	     -3.51370345	      0.00000000	    -15.79333226	      7.69272731	     -5.24473974
      4.65000000	     -0.30485312	     -6.54270440	     -0.45277855	      0.02030626	      0.69923351	     -0.44021228	      7.99018013	     16.66908912	     12.44313525	     -9.77192137	      9.39253011	    -15.54377158	      0.00000000	     20.80109158	     -6.11936763	      0.93003409	    -73.30755174	     -0.33038379	     -5.06907049	      0.00000000	    -15.84146110	      7.01823933	     -4.63477682
      4.66000000	     -0.28489927	     -6.04614843	     -1.14997068	      0.03098214	      0.70092476	     -0.43959505	      6.30500922	     16.10634721	     13.86342197	     -8.80639252	      9.56424653	    -15.79634791	      0.00000000	     22.33583460	     -5.38785379	      1.03272139	    -72.87638277	      0.81001432	     -6.79476126	      0.00000000	    -16.02162802	      6.32497975	     -3.96311616
      4.67000000	     -0.29015354	     -5.48348663	     -1.85503279	      0.04154935	      0.70238325	     -0.43898257	      4.74988617	     15.44512248	     15.16465303	     -7.94474443	      9.79877077	    -16.07026484	      0.00000000	     23.78220214	     -4.63162993	      1.07788635	    -72.04169248	      1.63217129	     -8.56129889	      0.00000000	    -16.20278163	      5.56035257	     -3.33397253
      4.68000000	     -0.30741124	     -4.91284029	     -2.59649056	      0.05197178	      0.70359786	     -0.43838117	      3.31882641	     14.75109497	     16.42540909	     -7.21370541	     10.08012851	    -16.32895222	      0.00000000	     25.11519388	     -3.92007765	      1.06911923	    -70.81591235	      2.17587003	    -10.35671163	      0.00000000	    -16.42125788	      4.80778094	     -2.72812211
